<svg width="11" height="11" viewBox="0 0 11 11" fill="none" xmlns="http://www.w3.org/2000/svg">
<path fill-rule="evenodd" clip-rule="evenodd" d="M2.70708 0.293407C2.51848 0.111249 2.26588 0.0104547 2.00368 0.0127331C1.74148 0.0150115 1.49067 0.120181 1.30526 0.305589C1.11985 0.490997 1.01469 0.74181 1.01241 1.00401C1.01013 1.2662 1.11092 1.5188 1.29308 1.70741L4.58608 5.00041L1.29308 8.29341C1.19757 8.38565 1.12139 8.496 1.06898 8.618C1.01657 8.74001 0.988985 8.87123 0.987831 9.00401C0.986677 9.13679 1.01198 9.26846 1.06226 9.39136C1.11254 9.51426 1.18679 9.62591 1.28069 9.7198C1.37458 9.81369 1.48623 9.88795 1.60913 9.93823C1.73202 9.98851 1.8637 10.0138 1.99648 10.0127C2.12926 10.0115 2.26048 9.98392 2.38249 9.93151C2.50449 9.8791 2.61483 9.80292 2.70708 9.70741L6.00008 6.41441L9.29308 9.70741C9.48168 9.88957 9.73429 9.99036 9.99648 9.98808C10.2587 9.9858 10.5095 9.88063 10.6949 9.69523C10.8803 9.50982 10.9855 9.259 10.9878 8.99681C10.99 8.73461 10.8892 8.48201 10.7071 8.29341L7.41408 5.00041L10.7071 1.70741C10.8892 1.5188 10.99 1.2662 10.9878 1.00401C10.9855 0.74181 10.8803 0.490997 10.6949 0.305589C10.5095 0.120181 10.2587 0.0150115 9.99648 0.0127331C9.73429 0.0104547 9.48168 0.111249 9.29308 0.293407L6.00008 3.58641L2.70708 0.293407Z" fill="rgba(0, 0, 0, 0.6)"/>
</svg>
